HIERARCHY
ROOT Hips
{
	OFFSET 0.000000 0.000000 0.000000
	CHANNELS 6 Xposition Yposition Zposition Xrotation Yrotation Zrotation
	JOINT LeftUpLeg_virtual
	{
		OFFSET 0.000000 0.000000 0.000000
		CHANNELS 3 Xrotation Yrotation Zrotation
		JOINT LeftUpLeg
		{
			OFFSET 10.205400 -3.823500 0.155100
			CHANNELS 3 Xrotation Yrotation Zrotation
			JOINT LeftLeg
			{
				OFFSET 0.708757 -12.982077 0.567790
				CHANNELS 3 Xrotation Yrotation Zrotation
				JOINT LeftFoot
				{
					OFFSET -0.708756 -10.717838 -2.184338
					CHANNELS 3 Xrotation Yrotation Zrotation
					JOINT LeftToeBase
					{
						OFFSET 0.108149 -7.191104 7.560241
						CHANNELS 3 Xrotation Yrotation Zrotation
						JOINT LeftToe_End
						{
							OFFSET 0.070230 0.081724 4.490308
							CHANNELS 3 Xrotation Yrotation Zrotation
							End Site
							{
								OFFSET 0 0 0
							}
						}
					}
				}
			}
		}
	}
	JOINT RightUpLeg_virtual
	{
		OFFSET 0.000000 0.000000 0.000000
		CHANNELS 3 Xrotation Yrotation Zrotation
		JOINT RightUpLeg
		{
			OFFSET -10.205400 -3.823500 0.005500
			CHANNELS 3 Xrotation Yrotation Zrotation
			JOINT RightLeg
			{
				OFFSET -0.708756 -12.982134 0.610632
				CHANNELS 3 Xrotation Yrotation Zrotation
				JOINT RightFoot
				{
					OFFSET 0.708754 -10.717769 -1.945823
					CHANNELS 3 Xrotation Yrotation Zrotation
					JOINT RightToeBase
					{
						OFFSET -0.108140 -7.191069 7.372968
						CHANNELS 3 Xrotation Yrotation Zrotation
						JOINT RightToe_End
						{
							OFFSET -0.070227 0.081735 4.479403
							CHANNELS 3 Xrotation Yrotation Zrotation
							End Site
							{
								OFFSET 0 0 0
							}
						}
					}
				}
			}
		}
	}
	JOINT Spine_virtual
	{
		OFFSET 0.000000 0.000000 0.000000
		CHANNELS 3 Xrotation Yrotation Zrotation
		JOINT Spine
		{
			OFFSET 0.000000 6.876099 0.125700
			CHANNELS 3 Xrotation Yrotation Zrotation
			JOINT Spine1
			{
				OFFSET 0.000000 5.730043 0.104720
				CHANNELS 3 Xrotation Yrotation Zrotation
				JOINT Spine1_split
				{
					OFFSET 0.000000 5.730043 0.104720
					CHANNELS 3 Xrotation Yrotation Zrotation
					JOINT Spine2
					{
						OFFSET 0.000000 5.730043 0.104720
						CHANNELS 3 Xrotation Yrotation Zrotation
						JOINT Neck_virtual
						{
							OFFSET 0.000000 0.000000 0.000000
							CHANNELS 3 Xrotation Yrotation Zrotation
							JOINT Neck
							{
								OFFSET 0.000000 10.314075 0.188496
								CHANNELS 3 Xrotation Yrotation Zrotation
								JOINT Head
								{
									OFFSET 0.000000 7.643700 -2.377400
									CHANNELS 3 Xrotation Yrotation Zrotation
									JOINT HeadTop_End
									{
										OFFSET 0.000000 43.788605 -13.619600
										CHANNELS 3 Xrotation Yrotation Zrotation
										End Site
										{
											OFFSET 0 0 0
										}
									}
								}
							}
						}
						JOINT LeftShoulder_virtual
						{
							OFFSET 0.000000 0.000000 0.000000
							CHANNELS 3 Xrotation Yrotation Zrotation
							JOINT LeftShoulder
							{
								OFFSET 2.196100 4.412489 0.087492
								CHANNELS 3 Xrotation Yrotation Zrotation
								JOINT LeftShoulder_split
								{
									OFFSET 2.196100 4.412489 0.087492
									CHANNELS 3 Xrotation Yrotation Zrotation
									JOINT LeftArm
									{
										OFFSET 8.771219 -2.981674 -0.026999
										CHANNELS 3 Xrotation Yrotation Zrotation
										JOINT LeftForeArm
										{
											OFFSET 8.512804 0.000000 -0.000000
											CHANNELS 3 Xrotation Yrotation Zrotation
											JOINT LeftHand
											{
												OFFSET 18.484802 0.000000 -0.000000
												CHANNELS 3 Xrotation Yrotation Zrotation
												End Site
												{
													OFFSET 0 0 0
												}
											}
										}
									}
								}
							}
						}
						JOINT RightShoulder_virtual
						{
							OFFSET 0.000000 0.000000 0.000000
							CHANNELS 3 Xrotation Yrotation Zrotation
							JOINT RightShoulder
							{
								OFFSET -2.196100 4.412496 0.070690
								CHANNELS 3 Xrotation Yrotation Zrotation
								JOINT RightShoulder_split
								{
									OFFSET -2.196100 4.412496 0.070690
									CHANNELS 3 Xrotation Yrotation Zrotation
									JOINT RightArm
									{
										OFFSET -8.771282 -2.981682 -0.094208
										CHANNELS 3 Xrotation Yrotation Zrotation
										JOINT RightForeArm
										{
											OFFSET -8.494598 0.000000 0.000000
											CHANNELS 3 Xrotation Yrotation Zrotation
											JOINT RightHand
											{
												OFFSET -18.483803 0.000000 0.000001
												CHANNELS 3 Xrotation Yrotation Zrotation
												End Site
												{
													OFFSET 0 0 0
												}
											}
										}
									}
								}
							}
						}
					}
				}
			}
		}
	}
}
MOTION
Frames: 8
Frame Time: 0.03333333
0.867261 30.069912 0.604858 0.000000 0.000000 0.000000 1.107787 -63.717079 5.330622 -32.641283 2.845308 16.710681 44.637168 -9.572525 -6.890478 -19.462720 -2.016605 -18.352416 2.839758 1.352936 0.028767 0.000000 0.000000 0.000000 -4.047040 -57.785545 2.640028 -20.055599 -2.459323 -39.266351 32.971478 -0.911810 -3.349593 -16.029954 -2.278618 23.613315 -5.798339 3.316935 -6.889768 0.000000 0.000000 0.000000 -7.143681 -60.836030 -1.771228 7.586149 3.282520 -4.571720 6.866653 0.841983 -5.863493 2.414260 -1.752250 0.698267 0.000000 0.000000 0.000000 7.104936 1.259077 -5.001709 -13.902643 23.231915 3.955998 -1.494282 15.122589 1.765068 0.000000 0.000000 0.000000 6.529196 0.829491 -5.475185 -6.390304 -20.855388 -2.373101 -9.091141 0.791381 -2.587693 -13.895021 20.597632 -28.138423 0.138811 -32.197751 2.082389 0.000000 0.000000 0.000000 6.537550 1.264020 -5.291826 -4.180659 2.770258 6.321297 1.530522 -0.400347 0.250673 -38.082314 -21.717561 29.302758 -171.670726 60.956112 169.488767 0.000000 0.000000 0.000000 
-0.027761 30.182688 0.753632 0.000000 0.000000 0.000000 0.114912 -63.558544 4.535389 -31.915196 5.847652 18.454430 44.921942 -10.690809 -7.359823 -19.031501 -2.609918 -16.066434 2.497788 1.216326 0.422350 0.000000 0.000000 0.000000 -3.856566 -58.724252 2.576917 -21.735115 -2.055630 -38.304343 39.803897 0.304785 -3.067659 -14.417956 -0.472358 21.589673 -1.824294 3.171549 -7.107933 0.000000 0.000000 0.000000 -6.819336 -61.370384 -0.672756 7.290457 2.663497 -4.784711 5.995257 0.374933 -6.502193 0.679929 -2.264983 -0.214154 0.000000 0.000000 0.000000 6.015786 0.996356 -5.834313 -12.602235 23.125458 2.548779 -0.484482 15.277048 1.384300 0.000000 0.000000 0.000000 5.810096 0.532620 -5.986598 -6.036573 -20.172661 -1.289341 -9.050568 -1.019458 -0.825050 -15.812117 18.236084 -27.877841 0.664126 -34.687379 2.057458 0.000000 0.000000 0.000000 5.451720 0.750573 -5.851962 -4.422438 1.184106 6.008668 1.306782 -1.284383 0.767111 -39.055561 -22.126664 29.532785 -172.729364 57.313606 170.833317 0.000000 0.000000 0.000000 
-1.668552 30.341627 0.826488 0.000000 0.000000 0.000000 -0.160807 -61.958196 4.578466 -30.759528 9.954214 20.916006 43.235480 -11.126317 -8.492491 -18.523318 -2.459006 -14.583128 2.337926 1.055152 0.947447 0.000000 0.000000 0.000000 -2.924698 -59.174211 3.411269 -26.282901 -0.743256 -37.578666 50.169198 4.725178 -3.119805 -8.655231 3.398081 26.720682 -5.403040 3.524210 -9.251924 0.000000 0.000000 0.000000 -4.748215 -61.309397 1.765910 7.165539 2.065724 -4.581719 4.610172 -0.406407 -8.159958 -0.616629 -2.023373 -0.442773 0.000000 0.000000 0.000000 4.369343 0.359971 -7.506560 -11.155563 22.699705 -0.117097 -0.046205 14.754513 2.100694 0.000000 0.000000 0.000000 4.399282 -0.083894 -7.483278 -5.582612 -18.268116 0.737004 -8.089949 -1.641251 0.362032 -18.401588 15.894383 -27.173491 0.537098 -38.864425 1.358709 0.000000 0.000000 0.000000 3.650603 -0.123150 -7.347186 -4.628467 0.035072 4.848780 2.513580 -0.398867 1.565900 -42.080020 -27.492278 29.773375 -173.548741 50.239156 172.413386 0.000000 0.000000 0.000000 
-3.774556 30.409742 0.826914 0.000000 0.000000 0.000000 0.607513 -59.880316 5.658955 -29.133987 14.448878 23.364142 40.462553 -11.167999 -9.710430 -17.905585 -1.978136 -14.891897 1.149138 0.871248 1.702311 0.000000 0.000000 0.000000 -0.985990 -58.570573 5.431749 -31.570299 1.249872 -37.109753 60.664463 10.150617 -4.187138 -3.317219 8.082066 34.677372 -13.175731 4.220284 -11.854341 0.000000 0.000000 0.000000 -1.344028 -60.404861 5.256691 7.252203 1.510408 -4.187186 3.070208 -1.229513 -10.378250 -0.945881 -1.364803 -0.196258 0.000000 0.000000 0.000000 2.506739 -0.406877 -9.609306 -9.650305 21.968281 -3.499876 -0.338027 13.502708 3.518226 0.000000 0.000000 0.000000 2.605401 -0.806331 -9.560743 -5.346424 -15.450890 3.222622 -7.101925 -1.567259 1.023752 -21.605951 14.368334 -26.003640 -0.049112 -44.657826 0.292592 0.000000 0.000000 0.000000 1.490574 -1.003427 -9.400745 -4.835857 -0.343331 2.986728 4.697673 1.669388 1.777735 -47.540060 -35.421634 28.070221 -173.586854 43.875913 173.375842 0.000000 0.000000 0.000000 
-6.033638 30.314056 0.780397 0.000000 0.000000 0.000000 2.355246 -57.826096 7.852642 -27.087815 18.279398 25.355004 37.594601 -11.952876 -10.041235 -17.249522 -1.711903 -17.867964 -1.206198 0.768832 2.378030 0.000000 0.000000 0.000000 0.975900 -56.888946 7.878915 -35.422324 3.334824 -36.726764 67.732582 13.412852 -5.312636 -0.894839 10.154157 39.235380 -16.622942 3.970079 -13.007229 0.000000 0.000000 0.000000 2.459954 -58.999311 9.112006 7.440016 1.013329 -3.813953 1.641646 -1.807923 -12.530261 -0.642907 -1.700778 0.252158 0.000000 0.000000 0.000000 0.816181 -1.011425 -11.569801 -8.327146 20.979776 -6.802771 -1.624813 12.161579 5.007195 0.000000 0.000000 0.000000 0.909306 -1.356129 -11.522183 -5.413453 -12.411118 6.144376 -5.915611 -1.219240 1.236211 -25.252347 13.844896 -24.393244 -0.298757 -51.600372 -0.456971 0.000000 0.000000 0.000000 -0.552673 -1.599345 -11.415322 -5.170899 0.206764 0.340957 6.182201 2.980934 1.444303 -55.796754 -42.303583 22.810139 -173.101883 40.360428 173.648421 0.000000 0.000000 0.000000 
-8.323165 29.999479 0.737253 0.000000 0.000000 0.000000 4.613037 -55.632041 10.748249 -24.501926 20.833663 26.472099 35.454156 -13.330519 -8.999904 -17.828015 -1.610857 -21.454630 -2.811750 0.856018 2.095262 0.000000 0.000000 0.000000 2.784729 -54.915636 10.559423 -37.450480 5.343773 -37.181958 69.213223 13.779178 -5.064718 -1.105854 7.921594 38.377487 -11.590297 1.943976 -11.506733 0.000000 0.000000 0.000000 6.004708 -56.916246 12.557380 7.479446 0.525789 -3.576576 0.600126 -1.969341 -13.985082 -0.387564 -2.156736 1.165117 0.000000 0.000000 0.000000 -0.263746 -1.324258 -12.840888 -7.460250 19.820688 -9.462169 -3.873176 10.911589 5.824726 0.000000 0.000000 0.000000 -0.280701 -1.536078 -12.753515 -5.788738 -9.606651 9.051533 -5.155749 -0.863711 0.954511 -28.387395 14.748194 -22.911419 0.807398 -58.734074 0.055647 0.000000 0.000000 0.000000 -1.930105 -1.765556 -12.798434 -5.421793 1.823031 -3.082332 6.245749 2.526123 1.199656 -65.438314 -45.234946 14.806885 -172.268040 39.642053 173.181769 0.000000 0.000000 0.000000 
-10.558978 29.547752 0.630432 0.000000 0.000000 0.000000 6.500558 -53.422133 13.570282 -20.772426 21.460410 26.384828 34.162222 -15.436887 -6.753093 -19.042958 -1.519031 -24.394103 -2.782603 1.261715 0.222959 0.000000 0.000000 0.000000 4.446378 -53.207474 13.284069 -37.843268 7.867994 -38.789088 65.369616 11.926586 -3.848002 -2.100193 2.900870 33.829630 -3.388210 -0.472341 -7.601135 0.000000 0.000000 0.000000 8.994464 -54.188412 15.376742 7.301769 0.057832 -3.446551 0.170784 -1.742830 -14.321021 0.069505 -2.559292 1.631885 0.000000 0.000000 0.000000 -0.439455 -1.268158 -13.109955 -7.159064 18.556374 -11.056448 -7.068730 10.003796 5.412714 0.000000 0.000000 0.000000 -0.589888 -1.375040 -12.817305 -6.342266 -7.233975 11.376027 -4.752429 0.395594 0.796751 -30.571476 16.906989 -22.131275 3.747183 -65.260907 2.414701 0.000000 0.000000 0.000000 -2.289438 -1.537640 -13.139189 -5.446242 4.229913 -7.436181 5.626411 0.735420 1.494546 -72.203883 -43.583331 8.147912 -171.353778 40.415766 172.251893 0.000000 0.000000 0.000000 
-12.623755 29.034430 0.418970 0.000000 0.000000 0.000000 8.026590 -51.173451 15.996021 -17.252013 19.989182 26.039751 33.164233 -18.432944 -4.033467 -19.441295 -1.668210 -26.546903 -1.832522 1.970290 -3.355704 0.000000 0.000000 0.000000 6.155129 -52.066911 15.607778 -37.015814 10.780832 -41.205377 57.766468 9.487654 -3.149226 -1.885102 -2.468988 29.671691 1.678291 -2.270552 -3.246697 0.000000 0.000000 0.000000 11.364215 -51.647152 17.408008 7.038918 -0.235874 -3.208852 0.390239 -1.154025 -13.432375 1.076480 -2.873177 1.529943 0.000000 0.000000 0.000000 0.413601 -0.855527 -12.241666 -7.504235 17.102193 -11.075848 -10.752861 10.092283 3.624044 0.000000 0.000000 0.000000 0.146853 -0.916853 -11.683191 -6.895776 -5.450458 12.846456 -4.248603 2.419670 1.075389 -31.882558 20.049653 -22.527152 8.503283 -70.034478 6.643809 0.000000 0.000000 0.000000 -1.483345 -1.048417 -12.352771 -5.027816 7.048772 -12.633639 3.686855 -0.609058 1.312188 -73.335311 -39.884623 5.718978 -170.364930 42.108721 171.078166 0.000000 0.000000 0.000000 
